<?xml version="1.0" encoding="utf-8"?>
<!-- Generator: Adobe Illustrator 19.0.0, SVG Export Plug-In . SVG Version: 6.00 Build 0)  -->
<svg version="1.1" id="Calque_1" xmlns="http://www.w3.org/2000/svg" xmlns:xlink="http://www.w3.org/1999/xlink" x="0px" y="0px"
	 viewBox="0 0 568.5 151.7" style="enable-background:new 0 0 568.5 151.7;" xml:space="preserve">
<style type="text/css">
	.st0{fill:#005EB8;}
	.st1{fill:#A20067;}
</style>
<g>
	<g>
		<path class="st0" d="M24.8,49.4v100.2H1.2V49.4H24.8z"/>
		<path class="st0" d="M60.8,76.9v11.4C65,81.1,73.3,76,83.8,76c14.2,0,23.9,7.7,23.9,28.4v45.2H84.6v-45.5c0-6.5-3.9-9.3-9.3-9.3
			c-4.9,0-9.7,3.4-11.7,8.6v46.2H40.5V77.5L60.8,76.9z"/>
		<path class="st0" d="M165.2,64.8c-2-1.4-4-2.2-7.1-2.2c-4.8,0-7.7,3.2-7.7,9v5.9H166l-0.8,17.3h-14.8v54.8h-23.2V94.8h-9.9V77.5
			h9.9v-5.9c0-16.1,7.1-26.9,25-26.9c9.3,0,15,1.9,20.4,5.9L165.2,64.8z"/>
		<path class="st0" d="M242.4,113.6c0,20.4-12.5,37.4-35.8,37.4c-23.6,0-36.1-17-36.1-37.4S183,76,206.4,76
			C229.9,76,242.4,93.2,242.4,113.6z M193.9,113.6c0,9.4,3.7,18.5,12.5,18.5c8.8,0,12.5-9.1,12.5-18.5c0-9.4-3.7-18.8-12.5-18.8
			C197.6,94.8,193.9,104.2,193.9,113.6z"/>
		<path class="st0" d="M273.1,76.9v11.3c3.6-6.3,11.9-12.2,23-12.2c9.7,0,17,4,20.7,12.5c3.7-6.8,12-12.5,23.2-12.5
			c14.2,0,23.6,8.3,23.6,29v44.6h-23.2v-45.5c0-6.5-3.6-9.3-9.1-9.3c-4.3,0-9.1,2.8-11.6,8.5v46.3h-23.2v-45.5
			c0-6.5-3.6-9.3-9.1-9.3c-4.3,0-9.1,2.9-11.6,8.6v46.2h-23.2V77.5L273.1,76.9z"/>
		<path class="st0" d="M407.3,76c22.5,0,30.7,10.8,30.7,27.3v23c0,5.9,1.1,17.3,2.8,21.8l-19.3,2.9c-1.5-3.4-2-6.3-2.5-9.9
			c-3.7,5.6-9.9,9.9-20.2,9.9c-15,0-24.4-6.9-24.4-21.2c0-10.5,6.5-16.8,15.7-20.1c5.6-2,16.8-4,24.7-5.7v-2.2
			c0-5.1-3.1-9.4-10.5-9.4c-6.5,0-11.9,3.6-15.4,9l-13.4-9.1C381.8,83.5,391.7,76,407.3,76z M401.3,121.7c-2.3,1.1-4.6,3.1-4.6,6.9
			c0,4.2,3.1,6.9,8,6.9c4.8,0,8.2-2.8,10.2-6.5v-11C410.2,119,403.4,120.7,401.3,121.7z"/>
	</g>
	<g>
		<path class="st1" d="M466.1,1.9c0,0,35.6-1.4,61.5,14.7c25.8,16.1,40.4,36.1,40.5,36.2c-0.1,0.1-14.6,20.1-40.5,36.2
			c-25.9,16.1-61.5,14.7-61.5,14.7V1.9z"/>
	</g>
</g>
</svg>
